#!OML:ASF F:\VICON\USERDATA\INSTALL\rory3\rory3.ASF
:FULLY-SPECIFIED
:DEGREES
18
root 0.19387667214669202 18.17368398775465 -17.479188048649224 -3.8588014922072897 1.257854423431568 -6.4443892625437
lfemur -9.944838535029692 0.40008852103306003 -12.74801010683817
ltibia 67.12358068427307
lfoot 14.124177819565897 -20.205272678459725
ltoes -1.084938078899775
rfemur -12.488601078567626 2.6400785192710554 32.724290207912254
rtibia 26.4517059950617
rfoot -7.97499989323478 -7.972591116152012
rtoes 6.706154014491934
lowerback 11.42499564473025 -0.5205311419842383 2.363676032663479
upperback -0.00931534839701502 -0.13181642841563257 3.7229047157815107
thorax -6.43133446411615 -0.07773153915364991 2.61376527181894
lowerneck -14.94111941750733 -3.1256771192327633 -1.8948913395080909
upperneck 21.528098740907126 -3.835360337559603 -0.23750859198085994
head 9.274039445250558 -1.9739560582933922 -0.23786102195311087
lclavicle 2.9911137972303177e-16 5.531458010562508e-17
lhumerus -29.895500715735228 5.373417392759973 84.0447861190546
lradius 27.86779570810082
lwrist 7.060850861729201
lhand -29.550400051819427 17.790202176005316
lfingers 7.125020000000001
lthumb -2.883300050978523 47.75050219149574
rclavicle 2.9911137972303177e-16 5.531458010562508e-17
rhumerus -35.96839158327771 -25.74619040697631 -72.96130947897345
rradius 20.879715327315743
rwrist 9.172416072594359
rhand -14.063631050407803 24.308192644853435
rfingers 7.125020000000001
rthumb 12.067768934841762 -5.323808112183286
19
root 0.18712285913791615 18.149485436608042 -16.871788057282004 -3.735302371894475 1.4595836906005015 -6.2589198525696785
lfemur -15.631794779833509 0.30762206912139023 -12.877710434961443
ltibia 71.0979771826241
lfoot 6.817705517105938 -14.178281985822128
ltoes -3.2092652249263063
rfemur -10.899602208479712 3.38649625448873 32.92539015777573
rtibia 27.435605753010506
rfoot -9.749417797748716 -9.433067141440137
rtoes 6.759434175615375
lowerback 11.565694081348525 -0.3161165269700371 2.435705890085046
upperback 0.41718435466272946 0.11397855687658831 3.3534295349546435
thorax -6.06289184202036 0.03552969540641257 2.1349170856598185
lowerneck -16.006506223751717 -3.323862259643538 -1.6702153562020208
upperneck 21.354700875326838 -4.15416603459749 -0.1883770568633374
head 9.409245364303198 -2.093621533219032 -0.31568870650854014
lclavicle 2.991114283124891e-16 5.5314525425828107e-17
lhumerus -29.879500716668222 6.680935071585116 83.49298864414722
lradius 27.10419720378606
lwrist 8.180727769555096
lhand -27.288711467257517 20.02229782571679
lfingers 7.125020000000001
lthumb -0.6988894959645728 50.000897809807675
rclavicle 2.991114283124891e-16 5.5314525425828107e-17
rhumerus -32.979196368938396 -25.39359103631946 -74.69920522225677
rradius 21.56751379169677
rwrist 8.491157694987464
rhand -14.246129526302589 18.927114963255995
rfingers 7.125020000000001
rthumb 11.89177063362352 -10.71518587114595
20
root 0.19404566199766748 18.17528388785531 -16.240689680156294 -3.3552950060123976 0.5131190997833714 -6.133000296291096
lfemur -20.311891650510386 0.9107683541763958 -13.066109626397912
ltibia 71.7452785120131
lfoot 0.12246911677354166 -9.722719270703983
ltoes -10.183497351426702
rfemur -9.00312345259705 4.617642373100336 33.12898999215293
rtibia 27.691006119654197
rfoot -12.172195063306237 -9.958905687969267
rtoes 11.712287710444492
lowerback 11.22829783341075 0.23949779023645199 2.6767953005516896
upperback 0.554447967908487 0.8373525564682721 2.963164682978116
thorax -5.731618481426782 0.38031868620210746 1.4657296339294856
lowerneck -15.722709744515077 -3.413880057817728 -1.8148227725609316
upperneck 21.114903824943884 -4.367903188359947 0.3359285792872224
head 9.29123892709448 -2.147389497238298 -0.13115114064975208
lclavicle 2.9911139772621517e-16 5.531456215514378e-17
lhumerus -30.472499705508188 6.879594887836016 83.0881903602608
lradius 26.096099206957994
lwrist 9.434544203948066
lhand -26.93021328096928 20.637696667797854
lfingers 7.125020000000001
lthumb -0.3527343578531834 50.6170965822042
rclavicle 2.9911139772621517e-16 5.531456215514378e-17
rhumerus -30.367500480167106 -23.525894258977416 -76.76260022147854
rradius 22.490211851398215
rwrist 6.833772187833295
rhand -15.51601945358422 17.536420765714187
rfingers 7.125020000000001
rthumb 10.667080516012314 -12.172779865935096
21
root 0.23682306865250685 18.20185319261217 -13.179517545570214 -3.0076401780118713 0.5215756671714529 -5.378898929033532
lfemur -22.253925723348914 2.1507824289209596 -13.183612912793787
ltibia 69.380237882166
lfoot -5.2535510200724564 -6.602365784075637
ltoes -4.556659890182475
rfemur -6.824806127855317 4.833197959266821 34.35057076994658
rtibia 28.27552255732995
rfoot -14.505394422298952 -10.538023844603154
rtoes 11.095804169808002
lowerback 11.566637917610024 0.5207541372069707 3.2416883218194767
upperback 0.3471330859995078 1.600961484308663 2.5316099502931113
thorax -5.931814368994172 0.665723097321223 0.5520309667208946
lowerneck -15.960865648476132 -3.5064182906290347 -1.7324416250490302
upperneck 21.65109340257544 -4.618386469272441 0.6339737777139028
head 9.59264439730879 -2.199695888878992 -0.06811068072993992
lclavicle 2.949850289489263e-16 4.3021973467507e-17
lhumerus -31.271427623098045 7.3438512151135775 82.35916778509794
lradius 25.59257160051936
lwrist 9.400631737182305
lhand -28.198652913205486 20.898489129201547
lfingers 7.125020000000001
lthumb -1.514023026406985 51.08621246709656
rclavicle 2.9737379021969717e-16 5.406433033557784e-17
rhumerus -28.235185139558528 -19.835675092442663 -78.79681014011267
rradius 25.407247863502832
rwrist 4.347044174131349
rhand -17.51859846251962 20.998210034321378
rfingers 7.125020000000001
rthumb 8.859040366937904 -8.670569481135177
22
root 0.27023474625136873 18.19449663821229 -11.90539103247393 -2.57293340330709 0.3402695359514437 -5.976408338909193
lfemur -24.859340888998773 2.862925362609502 -13.200155906692604
ltibia 64.97286854304562
lfoot -9.810989782630855 -3.7749737327463695
ltoes -4.756407241347164
rfemur -4.822234984180522 4.7062430216705575 35.05786006376827
rtibia 28.635685594997568
rfoot -16.272395708365522 -11.13035454325117
rtoes 9.95035153925121
lowerback 11.850240697643459 0.7915535174189022 3.974833693435401
upperback 0.212832766807245 2.2175167388452675 2.2858870749804545
thorax -6.024397929646863 0.9750414003915919 -0.25777980981695503
lowerneck -15.955463465136749 -3.639946913521604 -1.7018534202950024
upperneck 21.652054784045703 -5.052929876130486 0.9673860215360024
head 9.616509931013914 -2.3081369247298733 -0.08079458092125746
lclavicle 2.949438403307251e-16 4.3021543822871445e-17
lhumerus -32.09060107771656 8.834119635861367 81.21911973994551
lradius 25.24976008106922
lwrist 9.36873458342884
lhand -28.514625461952956 21.47060101073711
lfingers 7.125020000000001
lthumb -1.7524436089171331 51.76586395306166
rclavicle 2.9735326017686226e-16 5.4049040773218174e-17
rhumerus -26.473840468344584 -16.440451973581165 -80.3515226353042
rradius 28.497658090479007
rwrist 1.7730830718576391
rhand -17.72242624085026 21.575007742025342
rfingers 7.125020000000001
rthumb 8.61781463566203 -7.327252194532701
